<svg aria-hidden="true" style="width:0;height:0;position:absolute;overflow:hidden" xmlns="http://www.w3.org/2000/svg"><defs><symbol id="icon-faceboock" viewBox="0 0 18 32"><path fill="#344265" style="fill:var(--color1,#344265)" d="M15.599 0h-1.732C9.054 0 5.138 3.916 5.138 8.729v3.684H2.179a.552.552 0 0 0-.552.552v4.414c0 .305.247.552.552.552h2.958v13.518c0 .305.247.552.552.552h4.414a.552.552 0 0 0 .552-.552V17.931h4.39a.552.552 0 0 0 .552-.552v-4.414a.552.552 0 0 0-.552-.552h-4.39V8.729a3.216 3.216 0 0 1 3.212-3.212h1.732a.552.552 0 0 0 .552-.552V.551a.552.552 0 0 0-.552-.552z"/></symbol><symbol id="icon-instagram" viewBox="0 0 34 32"><path fill="#344265" style="fill:var(--color1,#344265)" d="M16.005.001c-4.345 0-4.891.019-6.597.097-1.703.078-2.866.348-3.883.743-1.052.409-1.945.955-2.834 1.845S1.254 4.468.844 5.52C.447 6.538.177 7.701.101 9.403.025 11.11.005 11.655.005 16.001s.019 4.889.097 6.596C.18 24.3.45 25.463.845 26.48c.409 1.052.956 1.945 1.845 2.834s1.782 1.438 2.833 1.847c1.018.396 2.181.665 3.884.743 1.707.078 2.252.097 6.597.097s4.889-.019 6.596-.097c1.703-.078 2.867-.348 3.886-.743 1.052-.409 1.943-.957 2.832-1.847s1.437-1.782 1.847-2.834c.393-1.018.663-2.181.743-3.883.077-1.707.097-2.251.097-6.596s-.02-4.891-.097-6.597c-.08-1.703-.35-2.866-.743-3.883-.41-1.052-.957-1.945-1.847-2.834S27.538 1.25 26.485.842c-1.02-.396-2.183-.665-3.887-.743-1.707-.078-2.25-.097-6.597-.097h.005zm-1.436 2.883h1.435c4.272 0 4.778.015 6.465.092 1.56.071 2.407.332 2.971.551.747.29 1.279.637 1.839 1.197s.907 1.093 1.197 1.84c.219.563.48 1.41.551 2.97.077 1.687.093 2.193.093 6.463s-.017 4.777-.093 6.463c-.071 1.56-.332 2.407-.551 2.97-.29.747-.637 1.278-1.197 1.838s-1.092.907-1.839 1.197c-.563.22-1.411.48-2.971.551-1.687.077-2.193.093-6.465.093s-4.779-.017-6.465-.093c-1.56-.072-2.407-.333-2.971-.552-.747-.29-1.28-.637-1.84-1.197s-.907-1.092-1.197-1.839c-.219-.563-.48-1.41-.551-2.97-.077-1.687-.092-2.193-.092-6.466s.015-4.777.092-6.463c.071-1.56.332-2.407.551-2.971.29-.747.637-1.28 1.197-1.84s1.093-.907 1.84-1.197c.564-.22 1.411-.48 2.971-.552 1.476-.067 2.048-.087 5.03-.09v.004zm9.976 2.657a1.92 1.92 0 1 0 0 3.841 1.92 1.92 0 0 0 0-3.842v.001zm-8.54 2.243a8.217 8.217 0 1 0 .002 16.434 8.217 8.217 0 0 0-.003-16.434zm0 2.883a5.333 5.333 0 1 1 0 10.667 5.333 5.333 0 0 1 0-10.667z"/></symbol><symbol id="icon-pinter" viewBox="0 0 25 32"><path fill="#344265" style="fill:var(--color1,#344265)" d="M.068 11.487c0-1.344.282-2.678.848-3.999s1.376-2.55 2.432-3.679 2.441-2.048 4.159-2.751S11.129.002 13.218.002c3.391 0 6.175 1.046 8.35 3.135s3.263 4.553 3.263 7.39c0 3.647-.921 6.661-2.767 9.038s-4.229 3.567-7.151 3.567c-.96 0-1.862-.224-2.703-.672s-1.433-.992-1.776-1.632l-1.28 5.055c-.106.406-.246.816-.416 1.232s-.358.816-.56 1.2-.406.745-.608 1.088a22.15 22.15 0 0 1-1.136 1.712c-.15.202-.288.377-.416.528l-.192.256c-.064.086-.15.118-.256.096s-.17-.086-.192-.192c0-.022-.016-.17-.048-.448s-.064-.57-.096-.88c-.032-.31-.064-.71-.096-1.2s-.042-.966-.032-1.424c.01-.458.042-.966.096-1.52s.134-1.065.24-1.536c.234-1.001 1.024-4.341 2.368-10.014-.17-.342-.31-.752-.416-1.232s-.16-.87-.16-1.168l-.032-.48c0-1.366.346-2.502 1.04-3.407s1.529-1.36 2.511-1.36c.79 0 1.401.262 1.84.784s.656 1.177.656 1.968c0 .489-.09 1.094-.272 1.808s-.422 1.536-.72 2.463c-.298.928-.512 1.68-.64 2.256-.214.96-.026 1.792.56 2.496s1.369 1.056 2.352 1.056c1.686 0 3.078-.953 4.175-2.863s1.648-4.217 1.648-6.927c0-2.07-.672-3.759-2.016-5.071s-3.222-1.968-5.631-1.968c-2.687 0-4.869.864-6.543 2.591s-2.511 3.798-2.511 6.207c0 1.43.406 2.633 1.216 3.615.278.32.362.662.256 1.024-.042.106-.106.352-.192.736s-.15.63-.192.736c-.042.233-.15.39-.32.464s-.362.07-.576-.016c-1.257-.512-2.201-1.392-2.831-2.639s-.944-2.703-.944-4.367z"/></symbol><symbol id="icon-youtube" viewBox="0 0 44 32"><path fill="#344265" style="fill:var(--color1,#344265)" d="M22.3.61h.051l.196.001c2.276.008 13.81.092 16.92.928a5.558 5.558 0 0 1 3.917 3.931c.28 1.051.476 2.448.612 3.884l.027.288.06.72.021.287c.182 2.531.203 4.9.206 5.418V16.276a87.014 87.014 0 0 1-.227 5.706l-.023.288-.024.288c-.137 1.586-.343 3.16-.651 4.316a5.56 5.56 0 0 1-3.917 3.931c-3.213.864-15.422.925-17.116.929h-.39c-.856-.002-4.397-.019-8.106-.146l-.474-.017-.237-.009-.475-.019-.474-.02c-3.072-.135-6.002-.356-7.349-.718A5.558 5.558 0 0 1 .93 26.874c-.309-1.156-.514-2.73-.652-4.316l-.024-.288-.023-.288a87.275 87.275 0 0 1-.227-5.639l-.001-.094v-.154l.001-.094c.004-.594.027-2.653.176-4.924l.019-.285.01-.143.021-.287c.018-.24.038-.48.06-.72l.026-.288C.452 7.917.648 6.521.929 5.47a5.56 5.56 0 0 1 3.917-3.931c1.348-.362 4.277-.583 7.349-.718l.474-.02.475-.019.237-.009.474-.017c3.472-.119 6.797-.141 7.91-.145l.196-.001H22.301zm-4.575 8.893v13.34l11.511-6.67-11.511-6.67z"/></symbol><symbol id="icon-phone" viewBox="0 0 32 32"><path d="M28.128 31C12.131 31.023-.009 18.736.008 2.88.008 1.844.847 1 1.883 1h4.949c.929 0 1.719.683 1.855 1.602a23.254 23.254 0 0 0 1.905 6.368l.193.416a1.327 1.327 0 0 1-.432 1.636c-1.533 1.094-2.118 3.298-.924 5.017a22.157 22.157 0 0 0 5.544 5.543c1.719 1.194 3.922.608 5.016-.924a1.327 1.327 0 0 1 1.637-.433l.414.192a23.259 23.259 0 0 0 6.369 1.904 1.878 1.878 0 0 1 1.602 1.855v4.95a1.877 1.877 0 0 1-1.877 1.875h-.003z"/></symbol><symbol id="icon-settings_1" viewBox="0 0 32 32"><path d="M15.023.263 14.004 2.59c-.527.032-1.052.099-1.571.199L10.874.776l-1.68.571-.008 2.561c-.712.366-1.394.808-2.038 1.325L4.773 4.164 3.557 5.457l1.216 2.306A12.047 12.047 0 0 0 3.754 9.51l-2.607.071-.529 1.693 2.105 1.551a12.32 12.32 0 0 0-.153 1.898L.233 15.907l.245 1.758 2.566.502c.153.535.342 1.06.569 1.574L1.922 21.84l.944 1.503 2.628-.615a12.513 12.513 0 0 0 1.704 1.651l-.511 2.633 1.536.887 2.007-1.747c.576.232 1.167.417 1.768.557l.655 2.572 1.768.144L15.484 27a12.219 12.219 0 0 0 2.187-.331l1.689 1.957 1.647-.659-.048-.992-3.844-2.915a9.568 9.568 0 0 1-3.419.23 9.488 9.488 0 0 1-5.774-2.858 9.532 9.532 0 0 1 .23-13.487 9.57 9.57 0 0 1 6.562-2.702 9.457 9.457 0 0 1 6.927 2.892c3.076 3.182 3.495 7.968 1.31 11.591l2.141 1.624c.268-.421.509-.854.72-1.297l2.588-.071.529-1.693-2.09-1.54c.101-.633.152-1.275.153-1.915l2.323-1.18-.245-1.758-2.563-.502a12.134 12.134 0 0 0-.854-2.151l1.528-2.116-1.021-1.45-2.515.73-.094-.1a12.582 12.582 0 0 0-1.268-1.143l.481-2.486-1.536-.887-1.908 1.662a12.176 12.176 0 0 0-1.896-.586L16.798.41l-1.77-.144zm-3.895 10.279a4.678 4.678 0 0 0-2.009.488l3.028 2.298c.916.695 1.176 2.015.473 2.942s-2.053 1.067-2.982.362l-3.026-2.296c-.31 1.66.277 3.419 1.714 4.51 1.289.977 2.943 1.16 4.367.649l.32-.115.27.205 9.323 7.073-.023.339c-.11 1.51.508 3.054 1.798 4.032 1.437 1.09 3.291 1.181 4.807.435l-3.026-2.296c-.929-.705-1.157-2.043-.454-2.969s2.045-1.032 2.961-.337l3.026 2.296c.309-1.66-.275-3.42-1.712-4.51a4.621 4.621 0 0 0-4.351-.672l-.318.113-.27-.205-9.323-7.073.023-.337a4.62 4.62 0 0 0-1.819-4.007 4.524 4.524 0 0 0-2.798-.925zm2.918 6.044 10.974 8.327-.756.998-10.976-8.329.758-.996z"/></symbol><symbol id="icon-Search-icon" viewBox="0 0 30 32"><path fill="#485982" style="fill:var(--color4,#485982)" d="m22.31 20.011 8.001 8.001-3.145 3.145-8.002-8.002a12.177 12.177 0 0 1-6.931 2.152C5.477 25.307 0 19.83 0 13.074S5.477.841 12.233.841s12.233 5.477 12.233 12.233c0 2.575-.796 4.965-2.155 6.936zm-4.222-1.793a7.762 7.762 0 0 0 1.938-5.144 7.793 7.793 0 1 0-2.649 5.855l.711-.711z"/></symbol><symbol id="icon-settings" viewBox="0 0 32 32"><path d="M28.48 13.28c-.32-1.44-.96-2.88-1.76-4.16l1.6-3.36-2.24-2.24-3.36 1.6c-1.28-.8-2.56-1.28-4-1.6L17.6 0h-3.2l-1.28 3.52c-1.44.32-2.72.96-4 1.76l-3.36-1.6-2.24 2.08 1.6 3.36c-.8 1.28-1.28 2.56-1.6 4L0 14.4v3.2l3.52 1.28c.32 1.44.96 2.88 1.6 4l-1.6 3.36 2.24 2.24 3.36-1.6c1.28.8 2.56 1.44 4 1.76L14.4 32h3.2l1.28-3.52c.48-.16 1.12-.32 1.6-.48l-2.56-2.56C11.84 26.56 6.4 22.08 6.4 16c0-5.28 4.32-9.6 9.6-9.6 5.92 0 10.4 5.28 9.44 10.88L28.16 20c.16-.48.32-.8.32-1.28L32 17.6v-3.2l-3.52-1.12z"/><path d="m31.359 27.84-9.44-9.44c2.24-4.96-2.4-10.24-7.52-8.8l2.88 2.88c1.28 1.28 1.28 3.36 0 4.48-1.12 1.28-3.36 1.28-4.48 0l-2.88-2.72c-1.44 4.48 3.2 9.6 8.48 7.52l9.44 9.44c.96.96 2.4.96 3.36 0 .96-.8.96-2.4.16-3.36z"/></symbol></defs></svg>